# Blender v2.80 (sub 75) OBJ File: 'Field.blend'
# www.blender.org
v -19.906746 0.000000 19.906746
v 19.906746 0.000000 19.906746
v -19.906746 0.000000 -19.906746
v 19.906746 0.000000 -19.906746
v -19.399170 0.000000 19.906746
v 19.399170 0.000000 19.906746
v 19.399170 0.000000 -19.906746
v -19.399170 0.000000 -19.906746
v -19.906746 0.000000 -19.430214
v -19.906746 0.000000 19.430214
v 19.906746 0.000000 34.941189
v 19.906746 0.000000 -34.167011
v -19.399170 0.000000 19.430214
v -19.399170 0.000000 -19.430214
v 19.399170 0.000000 19.430214
v 19.399170 0.000000 -19.430214
v -22.375694 3.049213 23.749891
v 18.798265 3.049213 23.749891
v 18.798265 3.049213 -23.749891
v -22.375694 3.049213 -23.749891
v -22.375694 3.049213 -23.181362
v 18.798265 3.049213 -23.181362
v -22.981264 3.049213 -23.181362
v -22.981264 3.049213 23.181362
v -22.375694 3.049213 23.181362
v 18.798265 3.049213 23.181362
v 28.816832 0.000000 34.941189
v 28.816832 0.000000 -34.167011
v 19.987646 0.677539 25.623932
v 19.987646 0.677539 -25.623932
v 19.318270 0.677539 25.623932
v 19.318270 0.677539 -25.623932
v 32.808865 0.000000 19.430214
v 32.808865 0.000000 -19.430214
v 31.557175 0.000000 34.627834
v 31.557175 0.000000 -34.627834
v 32.808865 0.000000 34.627834
v 32.808865 0.000000 -34.627834
v 28.816832 4.632097 34.941189
v 28.816832 4.632097 -34.167011
v 32.808865 4.632097 19.430214
v 32.808865 4.632097 -19.430214
v 32.808865 4.632097 -34.627834
v 31.557175 4.632097 -34.627834
v 31.557175 4.632097 34.627834
v 32.808865 4.632097 34.627834
vt 0.169965 0.990053
vt 0.184718 0.971071
vt 0.184718 0.990053
vt 0.213192 0.990053
vt 0.198438 0.971071
vt 0.213192 0.971071
vt 0.740150 0.320280
vt 0.709901 0.035793
vt 0.740150 0.031317
vt 0.262363 0.900750
vt 0.247699 0.730337
vt 0.262363 0.716226
vt 0.372284 0.104786
vt 0.133054 0.394210
vt 0.133054 0.104786
vt 0.156244 0.990053
vt 0.141491 0.971071
vt 0.156244 0.971071
vt 0.285286 0.900982
vt 0.274293 0.733568
vt 0.285286 0.716964
vt 0.076776 0.701203
vt 0.076542 0.973512
vt 0.076542 0.692581
vt 0.790542 0.830411
vt 0.786186 0.494859
vt 0.790407 0.540986
vt 0.371039 0.463909
vt 0.117161 0.468144
vt 0.117161 0.463909
vt 0.371039 0.045474
vt 0.117162 0.049708
vt 0.117162 0.045474
vt 0.830648 0.030352
vt 0.826914 0.375651
vt 0.826914 0.030352
vt 0.221731 0.944841
vt 0.234802 0.744495
vt 0.232687 0.956776
vt 0.183071 0.739468
vt 0.167251 0.941555
vt 0.169811 0.729282
vt 0.766631 0.075144
vt 0.793329 0.392507
vt 0.766631 0.364569
vt 0.135515 0.077718
vt 0.371039 0.049708
vt 0.374745 0.077718
vt 0.209576 0.944841
vt 0.196505 0.744495
vt 0.209575 0.730256
vt 0.418231 0.098406
vt 0.444505 0.415769
vt 0.418231 0.387831
vt 0.649958 0.057392
vt 0.625594 0.341880
vt 0.625594 0.035223
vt 0.135515 0.436044
vt 0.132417 0.900836
vt 0.151173 0.734433
vt 0.140970 0.915357
vt 0.911603 0.460778
vt 0.966542 0.975481
vt 0.911603 0.975481
vt 0.794487 0.876559
vt 0.798614 0.494877
vt 0.798614 0.876559
vt 0.782230 0.978200
vt 0.778079 0.532888
vt 0.782230 0.463495
vt 0.114102 0.733467
vt 0.114102 0.966895
vt 0.093470 0.964535
vt 0.794986 0.431234
vt 0.794487 0.494877
vt 0.435658 0.892375
vt 0.454386 0.808524
vt 0.454386 0.892375
vt 0.495655 0.808524
vt 0.495655 0.892375
vt 0.527154 0.435032
vt 0.555687 0.548221
vt 0.527154 0.548221
vt 0.660042 0.439548
vt 0.635427 0.838728
vt 0.635427 0.549304
vt 0.643145 0.951917
vt 0.635427 0.951917
vt 0.643145 0.436116
vt 0.610723 0.949226
vt 0.582212 0.434521
vt 0.610723 0.434521
vt 0.555687 0.837646
vt 0.527154 0.837646
vt 0.434289 0.786961
vt 0.475790 0.703111
vt 0.475790 0.786961
vt 0.555687 0.950835
vt 0.527154 0.950835
vt 0.494483 0.703111
vt 0.494483 0.786961
vt 0.045253 0.963589
vt 0.045253 0.696839
vt 0.052610 0.954657
vt 0.198438 0.990053
vt 0.709901 0.342449
vt 0.250072 0.912577
vt 0.372284 0.394210
vt 0.141491 0.990053
vt 0.276072 0.914899
vt 0.038297 0.971472
vt 0.030695 0.971162
vt 0.038297 0.699341
vt 0.786364 0.876543
vt 0.371039 0.468144
vt 0.886355 0.030173
vt 0.886355 0.375473
vt 0.882621 0.375473
vt 0.221731 0.730256
vt 0.183071 0.953708
vt 0.793329 0.047206
vt 0.198620 0.956776
vt 0.444505 0.070468
vt 0.649958 0.346355
vt 0.374745 0.436044
vt 0.140970 0.717109
vt 0.966542 0.460778
vt 0.778079 0.914573
vt 0.022606 0.703364
vt 0.022606 0.984146
vt 0.012813 0.815460
vt 0.790542 0.431229
vt 0.435658 0.808524
vt 0.555687 0.435032
vt 0.660041 0.954250
vt 0.635427 0.436116
vt 0.582212 0.949226
vt 0.434289 0.703111
vn 0.0000 1.0000 0.0000
vn 0.0000 -0.7834 -0.6215
vn 0.0000 -0.7760 0.6308
vn 0.9811 0.1933 0.0000
vn -0.9929 -0.1186 0.0000
vn -0.7156 -0.6985 0.0000
vn 0.0000 -0.7760 -0.6308
vn -0.7042 -0.7100 0.0000
vn 0.0000 0.7760 -0.6308
vn 0.7156 0.6985 0.0000
vn 0.0000 -0.7834 0.6215
vn 0.0000 0.7760 0.6308
vn 0.9929 -0.1186 0.0000
vn 0.0000 -0.9941 0.1087
vn 0.0000 0.9969 -0.0791
vn 0.0000 0.0000 1.0000
vn 0.1136 0.0000 0.9935
vn 1.0000 0.0000 0.0000
vn -1.0000 0.0000 0.0000
vn -0.1658 0.0000 -0.9862
vn 0.0000 0.0000 -1.0000
vn 0.0000 -1.0000 0.0000
vn -0.8686 0.4946 0.0284
vn -0.9168 -0.3981 -0.0316
s off
f 16/1/1 4/2/1 7/3/1
f 14/4/1 3/5/1 9/6/1
f 8/7/2 19/8/2 7/9/2
f 10/10/3 25/11/3 24/12/3
f 15/13/1 14/14/1 13/15/1
f 5/16/1 10/17/1 1/18/1
f 6/19/4 26/20/4 18/21/4
f 6/22/1 11/23/1 15/24/1
f 15/25/5 32/26/5 16/27/5
f 22/28/1 20/29/1 21/30/1
f 18/31/1 25/32/1 17/33/1
f 25/34/1 23/35/1 24/36/1
f 5/37/6 25/38/6 13/39/6
f 9/40/7 21/41/7 14/42/7
f 10/43/8 23/44/8 9/45/8
f 13/46/9 26/47/9 15/48/9
f 8/49/6 21/50/6 20/51/6
f 14/52/10 25/53/10 13/54/10
f 5/55/11 18/56/11 17/57/11
f 14/58/12 22/28/12 21/30/12
f 7/59/4 22/60/4 16/61/4
f 11/62/1 28/63/1 12/64/1
f 29/65/1 32/66/1 31/67/1
f 12/68/13 29/69/13 11/70/13
f 15/71/14 29/72/14 31/73/14
f 12/74/15 32/66/15 30/75/15
f 37/76/16 45/77/16 35/78/16
f 35/78/17 39/79/17 27/80/17
f 38/81/18 42/82/18 34/83/18
f 40/84/1 41/85/1 42/86/1
f 41/85/1 45/87/1 46/88/1
f 42/86/1 44/89/1 40/84/1
f 27/90/19 40/91/19 28/92/19
f 34/83/18 41/93/18 33/94/18
f 28/95/20 44/96/20 36/97/20
f 33/94/18 46/98/18 37/99/18
f 36/97/21 43/100/21 38/101/21
f 16/102/22 12/103/22 4/104/22
f 14/4/1 8/105/1 3/5/1
f 8/7/2 20/106/2 19/8/2
f 10/10/3 13/107/3 25/11/3
f 15/13/1 16/108/1 14/14/1
f 5/16/1 13/109/1 10/17/1
f 6/19/4 15/110/4 26/20/4
f 6/111/22 2/112/22 11/113/22
f 15/25/5 31/114/5 32/26/5
f 22/28/1 19/115/1 20/29/1
f 18/31/1 26/47/1 25/32/1
f 25/116/1 21/117/1 23/118/1
f 5/37/6 17/119/6 25/38/6
f 9/40/7 23/120/7 21/41/7
f 10/43/8 24/121/8 23/44/8
f 13/46/9 25/32/9 26/47/9
f 8/49/6 14/122/6 21/50/6
f 14/52/10 21/123/10 25/53/10
f 5/55/11 6/124/11 18/56/11
f 14/58/12 16/125/12 22/28/12
f 7/59/4 19/126/4 22/60/4
f 11/62/1 27/127/1 28/63/1
f 29/65/1 30/75/1 32/66/1
f 12/68/13 30/128/13 29/69/13
f 15/129/23 11/130/23 29/131/23
f 12/132/24 16/27/24 32/26/24
f 37/76/16 46/133/16 45/77/16
f 35/78/17 45/77/17 39/79/17
f 38/81/18 43/134/18 42/82/18
f 40/84/1 39/135/1 41/85/1
f 41/85/1 39/135/1 45/87/1
f 42/86/1 43/136/1 44/89/1
f 27/90/19 39/137/19 40/91/19
f 34/83/18 42/82/18 41/93/18
f 28/95/20 40/138/20 44/96/20
f 33/94/18 41/93/18 46/98/18
f 36/97/21 44/96/21 43/100/21
